# xmcd
#
# Track frame offsets:
#	150
#	12537
#	26807
#	42697
#	58870
#	74865
#	88115
#	101900
#	118142
#	131377
#	150827
#	165972
#	182562
#	201392
#	217452
#	231217
#	244572
#	261947
#	273310
#	286025
#	295610
#	312315
#
# Disc length: 4318 seconds
#
# Revision: 1
# Processed by: cddbd v1.4PL0 Copyright (c) Steve Scherf et al.
# Submitted via: audiograbber 1.82.01
#
DISCID=5210dc16
DTITLE=Vera Martinova - Toulavy touhy
DYEAR=2000
DGENRE=Country
TTITLE0=Harlekyn
TTITLE1=Loutka
TTITLE2=Toulavy touhy
TTITLE3=Stary evergreen
TTITLE4=Nechod za klukama
TTITLE5=Destivy den
TTITLE6=Strom vanocni
TTITLE7=Rodinne stesti
TTITLE8=Krajina
TTITLE9=Pouhych pet mil
TTITLE10=At rozhodne vitr
TTITLE11=Vsechno ma sve meze
TTITLE12=Bud nad veci
TTITLE13=Zadny
TTITLE14=Atmosfera letnich bourek
TTITLE15=Znam krasnej kout
TTITLE16=Tahnem spolu sirym svetem
TTITLE17=Maryland
TTITLE18=Pukla vaza
TTITLE19=Jeden chlap
TTITLE20=Par havranich copanku
TTITLE21=Ptaci nareci
EXTD=
EXTT0=
EXTT1=
EXTT2=
EXTT3=
EXTT4=
EXTT5=
EXTT6=
EXTT7=
EXTT8=
EXTT9=
EXTT10=
EXTT11=
EXTT12=
EXTT13=
EXTT14=
EXTT15=
EXTT16=
EXTT17=
EXTT18=
EXTT19=
EXTT20=
EXTT21=
PLAYORDER=
